<svg width="24" height="24" viewBox="0 0 24 24" fill="none" xmlns="http://www.w3.org/2000/svg">
<path fill-rule="evenodd" clip-rule="evenodd" d="M6.17942 6.99805H17.8203C19.5784 6.99805 21.0036 8.42327 21.0036 10.1814V18.0026C21.0036 19.6602 19.6599 21.0039 18.0023 21.0039H5.99734C4.3398 21.0039 2.99609 19.6602 2.99609 18.0026V10.1814C2.99609 8.42327 4.42132 6.99805 6.17942 6.99805Z" stroke="#A9A9A9" stroke-width="1.5" stroke-linecap="round" stroke-linejoin="round"/>
<path d="M21.0036 10.9998C16.031 13.6675 7.96872 13.6675 2.99609 10.9998" stroke="#A9A9A9" stroke-width="1.5" stroke-linecap="round" stroke-linejoin="round"/>
<path d="M7.99805 8.99884V4.99717C7.99805 3.89214 8.89385 2.99634 9.99888 2.99634H14.0005C15.1056 2.99634 16.0014 3.89214 16.0014 4.99717V8.99884" stroke="#A9A9A9" stroke-width="1.5" stroke-linecap="round" stroke-linejoin="round"/>
<path d="M13.4993 17.0022H10.498" stroke="#A9A9A9" stroke-width="1.5" stroke-linecap="round" stroke-linejoin="round"/>
</svg>
