<svg width="48" height="48" viewBox="0 0 48 48" fill="none" xmlns="http://www.w3.org/2000/svg">
<path d="M19.0356 2.49827C18.2019 2.50408 17.3788 2.62258 16.58 2.86136C15.7874 3.09855 15.0573 3.44233 14.3947 3.88015C15.1186 5.71971 16.9667 8.05483 19.1075 10.0482C21.3427 12.1297 23.9056 13.8981 25.5608 14.6956L25.5802 14.705L25.5992 14.7146C27.1202 15.4961 28.197 16.7259 28.8186 18.0825C29.2189 18.9561 29.452 19.8711 29.588 20.8013C30.8067 19.8506 32.0915 19.0894 33.3976 18.5369C33.2982 16.8204 32.9206 15.0204 32.2329 13.218C30.7904 9.43802 28.271 6.3949 25.4177 4.53902C23.3669 3.20515 21.1662 2.48346 19.0356 2.49827ZM11.8723 6.46436C11.393 7.20818 10.9999 8.03749 10.7012 8.93815C9.7037 11.9451 9.78461 15.717 11.2271 19.4972C12.1001 21.785 13.3681 23.8022 14.8656 25.4503C16.3408 25.8917 17.8 26.5736 19.1706 27.499C20.2296 28.214 21.1733 29.0324 21.991 29.9226C22.2579 29.9875 22.525 30.0428 22.7917 30.0863C23.2998 28.7608 23.9593 27.4421 24.772 26.1628C25.2637 25.3881 25.8026 24.6443 26.3855 23.9356C26.3922 23.4489 26.3883 22.9772 26.3651 22.5269C26.3023 21.3091 26.1073 20.2676 25.7501 19.4881C25.3931 18.7087 24.928 18.1642 24.057 17.7168L24.0955 17.7357C21.9506 16.7021 19.2723 14.8134 16.8073 12.5181C14.8479 10.6937 13.0303 8.65024 11.8723 6.46436ZM38.0991 19.1886C36.8328 19.1989 35.4932 19.493 34.138 20.0556C31.2467 21.2558 28.3436 23.6884 26.1964 27.0678C25.0979 28.7967 24.3085 30.5994 23.8178 32.3668C25.7443 35.5991 26.2175 39.312 24.8296 42.4301C25.054 42.7506 25.3044 43.052 25.5783 43.3314C27.6074 41.5807 29.9459 40.1305 31.6079 38.6412C32.5164 37.8275 33.2042 37.0217 33.5864 36.2544C33.9686 35.4868 34.1002 34.7828 33.9014 33.8241L33.8898 33.7683L33.8821 33.7121C33.1271 28.247 34.4516 25.0353 36.3819 23.0705C37.934 21.4908 39.479 20.6588 40.5448 19.5603C39.7748 19.3044 38.9537 19.1816 38.0991 19.1886ZM43.419 21.4342C41.8599 23.372 39.9378 24.267 38.7894 25.436C37.4697 26.7792 36.5588 28.3961 37.2223 33.227C37.5418 34.8695 37.261 36.4469 36.6075 37.759C35.9422 39.0947 34.9472 40.1808 33.8602 41.1549C32.2089 42.6344 30.3042 43.9014 28.7109 45.1374C30.5179 45.6068 32.5752 45.3796 34.6701 44.5099C37.5613 43.3099 40.4646 40.8771 42.6116 37.4977C44.759 34.1182 45.7279 30.4564 45.5861 27.3293C45.4778 24.9377 44.7391 22.8885 43.4191 21.4343L43.419 21.4342ZM37.2223 33.227C37.2167 33.1975 37.2122 33.1681 37.206 33.1386L37.2255 33.2504C37.2246 33.2426 37.2236 33.2348 37.2224 33.227H37.2223ZM10.9514 26.531C9.22801 26.5154 7.60454 26.8933 6.23814 27.6379C6.24751 27.6382 6.25567 27.6388 6.26504 27.6391C7.07411 27.6677 8.08979 27.5723 9.25923 27.7319C10.4286 27.8917 11.7984 28.4227 12.8362 29.5969C13.874 30.771 14.5855 32.4356 15.0812 34.8263L15.0929 34.882L15.1006 34.9384C15.3306 36.6064 16.393 37.5714 18.235 38.4748C19.8067 39.2457 21.8244 39.7962 23.7398 40.3567C24.5976 36.5129 22.5623 31.8249 18.2263 28.8976C15.8884 27.3192 13.3256 26.5525 10.9516 26.531H10.9514ZM3.35036 30.4166C0.981294 34.4976 2.88123 40.4859 8.04779 43.974C13.1314 47.4062 19.2777 46.9999 22.2359 43.4396C20.5075 42.9471 18.5482 42.3878 16.7487 41.5052C14.4284 40.3671 12.2169 38.4546 11.7706 35.4844C11.3456 33.45 10.7778 32.3644 10.3072 31.8319C9.83467 31.2969 9.46623 31.1667 8.80248 31.0763C8.13873 30.9855 7.22654 31.0503 6.14626 31.0122C5.30439 30.9826 4.31664 30.8618 3.35036 30.4167V30.4166ZM11.7707 35.4843C11.7728 35.4937 11.7748 35.5023 11.7768 35.5118L11.7574 35.3996C11.7613 35.4281 11.7665 35.4559 11.7708 35.4844L11.7707 35.4843Z" fill="#E2996A"/>
</svg>
