<svg width="32" height="32" viewBox="0 0 32 32" fill="none" xmlns="http://www.w3.org/2000/svg">
<path d="M25 11H15C14.7348 11 14.4804 11.1054 14.2929 11.2929C14.1054 11.4804 14 11.7348 14 12V16C14.0024 17.4166 14.5056 18.7867 15.4206 19.8682C16.3355 20.9497 17.6034 21.6729 19 21.91V28H16V30H24V28H21V21.91C22.3966 21.6729 23.6645 20.9497 24.5794 19.8682C25.4944 18.7867 25.9976 17.4166 26 16V12C26 11.7348 25.8946 11.4804 25.7071 11.2929C25.5196 11.1054 25.2652 11 25 11ZM24 16C24 17.0609 23.5786 18.0783 22.8284 18.8284C22.0783 19.5786 21.0609 20 20 20C18.9391 20 17.9217 19.5786 17.1716 18.8284C16.4214 18.0783 16 17.0609 16 16V13H24V16Z" fill="#E2996A"/>
<path d="M14.9999 1H9.99986C9.73464 1 9.48029 1.10536 9.29275 1.29289C9.10522 1.48043 8.99986 1.73478 8.99986 2V9.37C8.02814 9.93928 7.23331 10.7669 6.7037 11.7608C6.17409 12.7547 5.93045 13.8759 5.99986 15V29C5.99986 29.2652 6.10522 29.5196 6.29275 29.7071C6.48029 29.8946 6.73464 30 6.99986 30H11.9999V28H7.99986V15C7.99986 11.813 10.2309 10.98 10.3159 10.949L10.9999 10.72V3H13.9999V8H15.9999V2C15.9999 1.73478 15.8945 1.48043 15.707 1.29289C15.5194 1.10536 15.2651 1 14.9999 1Z" fill="#E2996A"/>
</svg>
