<svg width="48" height="48" viewBox="0 0 48 48" fill="none" xmlns="http://www.w3.org/2000/svg">
<path d="M9.53461 13.9745L9.52582 13.9723L9.517 13.9702C7.33145 13.4606 5.77677 12.8877 4.77604 12.3158C3.80735 11.7623 3.55971 11.3308 3.51263 11.1283C3.52851 10.9717 3.62446 10.7482 4.06778 10.4219C4.13062 10.3756 4.19803 10.3291 4.27014 10.2824C4.46181 11.3043 5.312 12.0301 6.25456 12.5498C7.37052 13.1651 8.95961 13.6898 10.9309 14.1751L10.945 14.1786L10.9592 14.1816C13.9152 14.8189 17.7637 15.3213 22.1049 15.4968C17.1207 15.3451 12.9239 14.8299 9.53461 13.9745ZM41.0761 13.9748C38.038 14.7452 34.4003 15.2396 30.0281 15.441C33.9188 15.227 37.2611 14.7504 40.055 14.1411L40.055 14.1411L40.063 14.1393C42.1211 13.6727 43.7492 13.1431 44.8851 12.5175C45.6774 12.0811 46.3917 11.5041 46.7237 10.7445C46.8894 10.9534 46.9199 11.1023 46.9199 11.1841C46.9199 11.2772 46.817 11.6984 45.7848 12.3081C44.8169 12.8798 43.2779 13.4611 41.0948 13.9702L41.0854 13.9724L41.0761 13.9748ZM18.6219 9.62417C20.0389 9.26163 21.0149 8.62236 21.9526 8.00825C22.0803 7.92458 22.2073 7.84139 22.3347 7.75942C23.6387 6.92001 25.1546 6.06417 28.3129 5.78211L28.3129 5.78213L28.3189 5.78155C29.8054 5.63971 31.0657 5.68113 32.1042 5.84485C31.4097 5.76841 30.6226 5.76372 29.7678 5.82897L29.7678 5.82888L29.754 5.83012C26.8899 6.08863 25.0865 7.01647 23.4907 7.87426C23.4405 7.90122 23.3907 7.92805 23.3411 7.95476C21.8454 8.75966 20.5735 9.44416 18.6219 9.62417ZM35.2853 7.87406C35.1547 7.20649 34.7123 6.75239 34.1869 6.44772C35.2582 6.95016 35.7015 7.58308 35.8041 8.08603L35.8041 8.08604L35.8059 8.09471C35.8815 8.44902 35.8046 8.82341 35.3267 9.20318C35.1571 9.33802 34.936 9.47236 34.6554 9.5975C35.0868 9.2095 35.4281 8.64151 35.287 7.88316L35.2871 7.88316L35.2853 7.87406ZM27.7768 9.45214C27.8923 9.60211 28.0268 9.73986 28.1795 9.8644C27.9118 9.75946 27.7283 9.64996 27.6139 9.55783C27.6029 9.549 27.5929 9.54059 27.5838 9.53264C27.6289 9.50867 27.6916 9.48064 27.7768 9.45214ZM46.4922 17.6707C45.6689 21.1941 44.3817 24.5968 42.6615 27.7889C41.735 29.21 40.8254 30.4748 39.9035 31.7566C39.232 32.6904 38.5539 33.6332 37.8581 34.6521L37.8131 34.718L37.7791 34.7903C37.1832 36.0566 36.7487 37.314 36.4649 38.5754L36.4064 38.6528C35.4531 39.9128 34.1196 40.8327 32.6032 41.2763L32.5844 41.2818L32.5658 41.288C30.3076 42.0456 27.9292 42.3809 25.5495 42.277L25.5277 42.2761H25.5059H25.2459H25.2175L25.189 42.2777C22.8678 42.4099 20.5985 42.0706 18.4164 41.3116L18.372 41.2961L18.3263 41.2849C16.8234 40.916 15.4931 40.0461 14.5532 38.8215C14.2195 37.4835 13.7455 36.1329 13.039 34.7604L13.0083 34.7007L12.9698 34.6456C12.3681 33.7839 11.7761 32.9602 11.1884 32.1426C10.1711 30.7272 9.16714 29.3304 8.14979 27.7876C7.4613 26.5014 6.84273 25.1105 6.25485 23.68L5.84812 22.6903L5.59259 21.9684C5.09473 20.5619 4.66916 19.1102 4.33549 17.6234C4.39275 17.6529 4.45074 17.6821 4.50944 17.7111C5.65252 18.2759 7.1656 18.8016 9.08252 19.291L9.09863 19.2951L9.11486 19.2987C13.3672 20.235 18.8175 20.9221 25.4859 20.9221C32.0057 20.9221 37.4403 20.2784 41.7262 19.2786C43.5799 18.8585 45.0676 18.3677 46.2231 17.8059C46.3145 17.7615 46.4043 17.7164 46.4922 17.6707ZM2.83841 25.2571C3.13895 24.8718 3.45179 24.53 3.77929 24.2226C3.77587 24.2269 3.77245 24.2311 3.76904 24.2354L3.74676 24.2632L3.72652 24.2926C2.52663 26.0336 2.05606 28.0399 2.50464 30.1922C2.66347 31.2847 3.04397 32.3333 3.62291 33.2736C4.2021 34.2143 4.96753 35.0265 5.87204 35.6603C6.32261 36.0175 6.77779 36.3254 7.24294 36.584C5.86691 36.6173 4.64119 36.2074 3.46773 35.2902L3.46141 35.2852L3.45502 35.2804C2.74887 34.7465 2.16525 34.0675 1.74342 33.2892C1.32306 32.5136 1.07307 31.6573 1.01011 30.7774C0.909985 28.7822 1.55624 26.8211 2.82315 25.2762L2.83089 25.2667L2.83841 25.2571ZM32.0239 11.186L32.0239 11.186L32.0239 11.186Z" stroke="#E2996A" stroke-width="2"/>
</svg>
