<svg width="48" height="48" viewBox="0 0 48 48" fill="none" xmlns="http://www.w3.org/2000/svg">
<path d="M6 19.5001V17.2501C5.99992 16.2659 6.21508 15.2935 6.63041 14.4012C7.04574 13.5089 7.65119 12.7182 8.40432 12.0845C9.15745 11.4509 10.04 10.9896 10.9902 10.733C11.9405 10.4764 12.9353 10.4307 13.905 10.5991C14.5362 8.40941 15.8622 6.48429 17.6831 5.11409C19.5041 3.7439 21.7211 3.00293 24 3.00293C26.2789 3.00293 28.4959 3.7439 30.3169 5.11409C32.1378 6.48429 33.4638 8.40941 34.095 10.5991C35.0647 10.4307 36.0595 10.4764 37.0098 10.733C37.96 10.9896 38.8426 11.4509 39.5957 12.0845C40.3488 12.7182 40.9543 13.5089 41.3696 14.4012C41.7849 15.2935 42.0001 16.2659 42 17.2501V19.5001C42.0007 24.0148 40.3047 28.3649 37.2485 31.6878C34.1923 35.0108 29.999 37.0639 25.5 37.4401V42.0001H22.5V37.4401C18.001 37.0639 13.8077 35.0108 10.7515 31.6878C7.69526 28.3649 5.99935 24.0148 6 19.5001ZM19.458 17.9971H28.542C28.4086 16.8084 28.594 15.6056 29.079 14.5122C29.5641 13.4188 30.3313 12.4741 31.302 11.7751C30.9134 10.1304 29.981 8.66504 28.6557 7.61637C27.3305 6.56771 25.69 5.99717 24 5.99717C22.31 5.99717 20.6695 6.56771 19.3443 7.61637C18.019 8.66504 17.0866 10.1304 16.698 11.7751C17.6692 12.4743 18.4367 13.4195 18.9218 14.5135C19.4068 15.6075 19.5919 16.8109 19.458 18.0001V17.9971ZM16.041 17.9971C16.1522 17.5033 16.151 16.9907 16.0373 16.4974C15.9236 16.0042 15.7004 15.5428 15.3842 15.1474C15.068 14.7521 14.6669 14.433 14.2107 14.2136C13.7545 13.9943 13.2547 13.8805 12.7485 13.8805C12.2423 13.8805 11.7425 13.9943 11.2863 14.2136C10.8301 14.433 10.429 14.7521 10.1128 15.1474C9.79662 15.5428 9.57342 16.0042 9.45972 16.4974C9.34603 16.9907 9.34476 17.5033 9.456 17.9971H16.041ZM31.959 17.9971H38.541C38.6522 17.5033 38.651 16.9907 38.5373 16.4974C38.4236 16.0042 38.2004 15.5428 37.8842 15.1474C37.568 14.7521 37.1669 14.433 36.7107 14.2136C36.2545 13.9943 35.7547 13.8805 35.2485 13.8805C34.7423 13.8805 34.2425 13.9943 33.7863 14.2136C33.3301 14.433 32.929 14.7521 32.6128 15.1474C32.2966 15.5428 32.0734 16.0042 31.9597 16.4974C31.846 16.9907 31.8448 17.5033 31.956 17.9971H31.959ZM24 34.5001C27.7191 34.5001 31.3055 33.1185 34.0634 30.6234C36.8212 28.1283 38.5538 24.6976 38.925 20.9971H9.075C9.44616 24.6976 11.1788 28.1283 13.9366 30.6234C16.6945 33.1185 20.2809 34.5001 24 34.5001ZM18 42.0031H30C30.3978 42.0031 30.7794 42.1612 31.0607 42.4425C31.342 42.7238 31.5 43.1053 31.5 43.5031C31.5 43.9009 31.342 44.2825 31.0607 44.5638C30.7794 44.8451 30.3978 45.0031 30 45.0031H18C17.6022 45.0031 17.2206 44.8451 16.9393 44.5638C16.658 44.2825 16.5 43.9009 16.5 43.5031C16.5 43.1053 16.658 42.7238 16.9393 42.4425C17.2206 42.1612 17.6022 42.0031 18 42.0031Z" fill="#E2996A"/>
</svg>
