<svg width="48" height="48" viewBox="0 0 48 48" fill="none" xmlns="http://www.w3.org/2000/svg">
<path d="M41.6639 9.11C41.8649 8.8088 41.9803 8.45869 41.9979 8.09703C42.0155 7.73537 41.9345 7.37573 41.7637 7.05647C41.5929 6.73721 41.3386 6.47031 41.028 6.28425C40.7173 6.09819 40.362 5.99995 39.9999 6H7.99994C7.63817 6.00019 7.28323 6.0985 6.97292 6.28446C6.6626 6.47042 6.40854 6.73706 6.23778 7.056C6.06703 7.37493 5.98598 7.73421 6.00326 8.09557C6.02055 8.45692 6.13552 8.80682 6.33594 9.108L21.9999 32.606V40H15.9999V44H31.9999V40H25.9999V32.606L41.6639 9.11ZM23.9999 28.394L17.0699 18H30.9299L23.9999 28.394ZM36.2639 10L33.5979 14H14.4019L11.7359 10H36.2639Z" fill="#E2996A"/>
</svg>
