<svg width="14" height="14" viewBox="0 0 14 14" fill="none" xmlns="http://www.w3.org/2000/svg">
<path d="M8.00887 2.04749L9.03554 4.10083C9.17554 4.38666 9.54887 4.66083 9.86387 4.71333L11.7247 5.02249C12.9147 5.22083 13.1947 6.08416 12.3372 6.93583L10.8905 8.38249C10.6455 8.62749 10.5114 9.09999 10.5872 9.43833L11.0014 11.2292C11.328 12.6467 10.5755 13.195 9.32137 12.4542L7.5772 11.4217C7.2622 11.235 6.74304 11.235 6.4222 11.4217L4.67804 12.4542C3.4297 13.195 2.67137 12.6408 2.99804 11.2292L3.4122 9.43833C3.48804 9.09999 3.35387 8.62749 3.10887 8.38249L1.6622 6.93583C0.810536 6.08416 1.0847 5.22083 2.2747 5.02249L4.13554 4.71333C4.4447 4.66083 4.81804 4.38666 4.95804 4.10083L5.9847 2.04749C6.5447 0.933327 7.4547 0.933327 8.00887 2.04749Z" stroke="#FF7020" stroke-width="1.5" stroke-linecap="round" stroke-linejoin="round"/>
</svg>
