<svg width="24" height="24" viewBox="0 0 24 24" fill="none" xmlns="http://www.w3.org/2000/svg">
<path d="M16.5 21V15.5C16.5 15.035 16.5 14.803 16.462 14.61C16.3849 14.2218 16.1944 13.8653 15.9145 13.5855C15.6347 13.3056 15.2782 13.1151 14.89 13.038C14.697 13 14 13 14 13C13.5 18 9.5 19 9.5 19C9.5 19 5.5 18 5 13C5 13 4.303 13 4.11 13.038C3.72184 13.1151 3.36529 13.3056 3.08546 13.5855C2.80563 13.8653 2.6151 14.2218 2.538 14.61C2.5 14.803 2.5 15.035 2.5 15.5V21" stroke="#E2996A" stroke-width="1.5" stroke-linecap="round" stroke-linejoin="round"/>
<path d="M9.5 13.5L11.5 12.5V14.5L9.5 13.5ZM9.5 13.5L7.5 12.5V14.5L9.5 13.5ZM21.5 21V15.5C21.5 15.035 21.5 14.803 21.462 14.61C21.3849 14.2218 21.1944 13.8653 20.9145 13.5855C20.6347 13.3056 20.2782 13.1151 19.89 13.038C19.697 13 19.465 13 19 13M14.5 3.174C14.821 3.05962 15.1592 3.00078 15.5 3C17.157 3 18.5 4.371 18.5 6.063V6.938C18.5 8.628 17.157 10 15.5 10C15.1592 9.99922 14.821 9.94038 14.5 9.826M12.5 6.938V6.063C12.5 4.37 11.157 3 9.5 3C7.843 3 6.5 4.371 6.5 6.063V6.938C6.5 8.628 7.843 10 9.5 10C11.157 10 12.5 8.629 12.5 6.938Z" stroke="#E2996A" stroke-width="1.5" stroke-linecap="round" stroke-linejoin="round"/>
</svg>
